<svg xmlns="http://www.w3.org/2000/svg" version="1.1" xmlns:xlink="http://www.w3.org/1999/xlink" xmlns:svgjs="http://svgjs.dev/svgjs" width="100%" height="100%" viewBox="0 0 1000 600"><rect width="1000" height="600" x="0" y="0" fill="#ffffff"/><g><circle r="166.66666666666666" cx="403.8483225504557" cy="379.67400534670463" fill="#ffffff" transform="matrix(0.6551873399754969,0,0,0.6551873399754969,-10.481752283726536,51.242385049228844)"/><path d="M224.21073774534642 325.47042509000096L224.21073774534642 325.47042509000096Q219.73095156474793 325.47042509000096 217.12684821586342 322.7934796893994Q214.54095537990818 320.0983237758686 214.54095537990818 314.90832759102886L214.54095537990818 314.90832759102886Q214.54095537990818 312.03106654820544 215.2147443582909 310.0825416647744Q215.8885333366736 308.13401678134335 217.12684821586342 306.9503334409413Q218.38337360798252 305.7666501005392 220.1680038750502 305.2203347126614Q221.9708446550472 304.6740193247835 224.26536928413424 304.6740193247835L224.26536928413424 304.6740193247835Q229.07294469745946 304.6740193247835 231.5677849687684 307.09601754437534Q234.06262524007732 309.5362262768965 234.06262524007732 314.90832759102886L234.06262524007732 314.90832759102886Q234.06262524007732 319.916218646576 231.53136394290988 322.6842166118239Q229.0001026457424 325.47042509000096 224.21073774534642 325.47042509000096ZM215.81569128495653 433.67729291567736L215.81569128495653 338.09031054997973L232.02304779199994 338.09031054997973L232.02304779199994 431.6195049546707Q232.02304779199994 438.8672891005171 230.56620675765896 443.3470752811156Q229.12757623624725 447.8268614617141 226.70557801665535 450.35812275888156Q224.26536928413424 452.88938405604904 221.13316106030112 453.78169918958287Q218.000952836468 454.6740143231167 214.59558691869597 454.6740143231167L214.59558691869597 454.6740143231167Q212.6834830611234 454.6740143231167 210.69853715183385 454.34622509039Q208.71359124254425 454.03664637059256 206.78327687204245 453.14433123705874L206.78327687204245 453.14433123705874L206.78327687204245 443.7294960526301Q207.31138174699106 443.7841275914179 207.8212761090104 443.8205486172764Q208.33117047102974 443.85696964313496 208.84106483304907 443.85696964313496L208.84106483304907 443.85696964313496Q210.2432743286023 443.85696964313496 211.53622074657991 443.3470752811156Q212.81095665162826 442.8371809190962 213.77611383687918 441.6534975786942Q214.7230605092008 440.45160372536293 215.26937589707867 438.5030788419318Q215.81569128495653 436.5545539585008 215.81569128495653 433.67729291567736L215.81569128495653 433.67729291567736ZM271.1392295640553 427.21256082578924L271.1392295640553 427.21256082578924Q268.31660006001965 427.21256082578924 265.4029179913377 426.7572980025577Q262.4892359226557 426.3202456922554 259.77586949619564 424.8998256837729Q257.0442925568063 423.49761618821975 254.64050485014369 420.875302326406Q252.23671714348106 418.2529884645922 250.45208687641335 413.95530741328633Q248.66745660934566 409.6576263619804 247.62945737237771 403.3932099143142Q246.609668648339 397.11058295371873 246.609668648339 388.4059577735314L246.609668648339 388.4059577735314L246.609668648339 374.5841784602213Q246.609668648339 366.00702687053877 247.66587839823623 359.88829452630665Q248.72208814813345 353.76956218207454 250.54313944105968 349.61756523420274Q252.38240124691515 345.4473577734017 254.80439946650705 342.9889385279513Q257.24460819902816 340.5305192825009 259.95797462548825 339.219362351594Q262.6895515648776 337.88999490775785 265.566812607701 337.4893636233141Q268.44407365052444 337.07052182594106 271.1938611028431 337.07052182594106L271.1938611028431 337.07052182594106Q273.81617496465685 337.07052182594106 276.63880446869246 337.45294259745555Q279.4614339727281 337.8353633689701 282.1383793733297 339.0736782481599Q284.8335352868605 340.330203640279 287.2373229935231 342.7886228857294Q289.6411107001857 345.26525264410907 291.462161993112 349.41724959198086Q293.2832132860382 353.58745705278193 294.3394230359354 359.7608209358018Q295.3956327858326 365.93418481882173 295.3956327858326 374.5841784602213L295.3956327858326 374.5841784602213L295.3956327858326 388.4059577735314Q295.3956327858326 396.9831093632139 294.30300201007685 403.1928942720923Q293.21037123432114 409.4026791809707 291.3711094284657 413.70036023227664Q289.5136371096809 417.9798307706533 287.07342837715976 420.63856565832555Q284.63321964463864 423.29730054599787 281.95627424403705 424.77235209326807Q279.26111833050624 426.2474036405383 276.4749098523291 426.7208769766992Q273.688701374152 427.21256082578924 271.1392295640553 427.21256082578924ZM271.2667031545601 414.7201489563153L271.2667031545601 414.7201489563153Q273.4337541931423 414.7201489563153 274.9452267662711 413.60930766763033Q276.4384888264706 412.4802558660161 277.36722498586295 409.9307840559194Q278.2959611452553 407.36310173289337 278.71480294262835 403.17468375916303Q279.1336447400014 398.9680552725035 279.1336447400014 392.75827036362506L279.1336447400014 392.75827036362506L279.1336447400014 371.0695494648737Q279.1336447400014 364.85976455599524 278.71480294262835 360.61671504347714Q278.2959611452553 356.3918760438883 277.36722498586295 353.8059832079331Q276.4384888264706 351.2200903719778 274.9452267662711 350.05461754450505Q273.4337541931423 348.9073552299615 271.2667031545601 348.9073552299615L271.2667031545601 348.9073552299615Q268.95396801254384 348.9073552299615 267.3878639006273 350.05461754450505Q265.8217597887107 351.2200903719778 264.801971064672 353.8059832079331Q263.76397182770404 356.3918760438883 263.3269195174018 360.61671504347714Q262.8716566941702 364.85976455599524 262.8716566941702 371.0695494648737L262.8716566941702 371.0695494648737L262.8716566941702 392.75827036362506Q262.8716566941702 398.9680552725035 263.3269195174018 403.17468375916303Q263.76397182770404 407.36310173289337 264.801971064672 409.9307840559194Q265.8217597887107 412.4802558660161 267.3878639006273 413.60930766763033Q268.95396801254384 414.7201489563153 271.2667031545601 414.7201489563153ZM309.8729905645961 405.6331030046135L309.8729905645961 338.09031054997973L326.0621365587102 338.09031054997973L326.0621365587102 404.3583670995651Q326.0621365587102 410.18573123692903 327.846766825778 412.44383484015754Q329.6496076057749 414.7201489563153 333.10960506233477 414.7201489563153L333.10960506233477 414.7201489563153Q335.53160328192666 414.7201489563153 337.84433842394293 413.3725709995499Q340.13886305303 412.0432035557138 341.9963353718147 409.53015277147557L341.9963353718147 409.53015277147557L341.9963353718147 338.09031054997973L358.20369187885814 338.09031054997973L358.20369187885814 426.2474036405383L345.83875359988906 426.2474036405383L344.236228462114 416.83256845610975L344.1815969233262 416.83256845610975Q342.2512825528244 419.837303089438 340.12065254010076 421.8586700245861Q337.9718120144478 423.88003695973424 335.6408663595022 425.0637203001363Q333.2917101916274 426.2474036405383 330.8697119720355 426.7572980025577Q328.42950323951436 427.267192364577 325.9892945069932 427.267192364577L325.9892945069932 427.267192364577Q318.24982651205676 427.267192364577 314.0614085383264 421.89509105044465Q309.8729905645961 416.5229897363123 309.8729905645961 405.6331030046135L309.8729905645961 405.6331030046135ZM375.10304787721356 426.2474036405383L375.10304787721356 338.09031054997973L386.93988128123397 338.09031054997973L388.3603012897164 347.0498829111768Q391.037246690318 342.0602023685589 394.53366517273633 339.56536209725Q398.0300836551547 337.07052182594106 401.6721862410071 337.07052182594106L401.6721862410071 337.07052182594106Q408.64681269291464 337.07052182594106 411.97933655896964 341.3499923643177Q415.31186042502463 345.64767341562356 415.31186042502463 354.2248250053061L415.31186042502463 354.2248250053061Q415.31186042502463 355.3174557810618 415.14796580866124 356.81071784126135Q414.98407119229785 358.3221904143901 414.6927029854297 359.9611365780237Q414.41954529149075 361.58187222872806 414.0007034941177 363.22081839236165Q413.5818616967447 364.85976455599524 413.1265988735131 366.18913199983143L413.1265988735131 366.18913199983143L401.872501883229 366.18913199983143L401.872501883229 357.9944011816634Q401.872501883229 355.3174557810618 401.5082916246438 353.58745705278193Q401.16229187898784 351.857458324502 400.5795554652514 350.8012485746048Q400.0150295644443 349.7450388247076 399.231977508486 349.32619702733456Q398.46713596545703 348.9073552299615 397.57482083192315 348.9073552299615L397.57482083192315 348.9073552299615Q395.6445064614213 348.9073552299615 394.023770810717 350.1638806220806Q392.3848246470834 351.40219550127046 391.29219387132764 353.6420885915697L391.29219387132764 353.6420885915697L391.29219387132764 426.2474036405383L375.10304787721356 426.2474036405383ZM425.54616869126994 426.2474036405383L425.54616869126994 338.09031054997973L438.03858056074387 338.09031054997973L439.5136321080141 347.5051457344083L439.5136321080141 347.5597772731961Q441.4257359655867 344.55504263986785 443.6292080300274 342.5336757047197Q445.85089060739745 340.5305192825009 448.2182572882015 339.3104149162403Q450.5856239690056 338.09031054997973 453.044043214456 337.5804161879604Q455.52067297283565 337.07052182594106 457.9426711924275 337.07052182594106L457.9426711924275 337.07052182594106Q465.70034970029326 337.07052182594106 469.88876767402354 342.47904416593195Q474.07718564775394 347.88756650592285 474.07718564775394 358.7046111859046L474.07718564775394 358.7046111859046L474.07718564775394 426.2474036405383L457.88803965363974 426.2474036405383L457.88803965363974 359.287347599641Q457.88803965363974 353.4599834622771 456.0851988736428 351.1836693461193Q454.3005686065751 348.9073552299615 450.8405711500153 348.9073552299615L450.8405711500153 348.9073552299615Q448.40036241749414 348.9073552299615 446.0147852237608 350.50988036773657Q443.6109975170982 352.1124055055117 441.75352519831335 354.93503500954733L441.75352519831335 354.93503500954733L441.75352519831335 426.2474036405383L425.54616869126994 426.2474036405383ZM503.0136906923516 427.21256082578924L503.0136906923516 427.21256082578924Q498.9163252832676 427.21256082578924 495.74769603357595 425.57361466215565Q492.57906678388434 423.934668498522 490.41201574530214 421.13024950741567Q488.2267541937907 418.30762000338 487.1159129051057 414.4287807494471Q485.98686110349144 410.5681520084435 485.98686110349144 406.01552377612796L485.98686110349144 406.01552377612796Q485.98686110349144 400.5705804102786 487.33443906025684 396.3457414106897Q488.68201701702225 392.1209024111009 491.2679098529775 388.7337470062581Q493.85380268893266 385.3465916014153 497.69622091700705 382.5603831232382Q501.53863914508145 379.77417464506107 506.6011617394163 377.27933437375214L506.6011617394163 377.27933437375214Q509.0413704719374 376.0592300074916 512.0825261311243 374.8027046153725Q515.123681790311 373.56438973618265 517.491048471115 372.6538640897195L517.491048471115 372.6538640897195L517.491048471115 361.0173463279209Q517.491048471115 358.44966400489494 517.2907328288932 356.2461919404542Q517.1086276996006 354.02450936308423 516.3619966695009 352.40377371237986Q515.6335761523304 350.76482754874627 514.1585246050602 349.8360913893539Q512.6834730577899 348.9073552299615 510.1157907347639 348.9073552299615L510.1157907347639 348.9073552299615Q508.4040025194132 348.9073552299615 506.7650563557796 349.5447231824857Q505.12611019214603 350.18209113500984 503.8877953129562 351.7299847339972Q502.6312699208371 353.2596678200552 501.90284940366666 355.82735014308116Q501.15621837356684 358.3768219531779 501.15621837356684 362.16460864246443L501.15621837356684 362.16460864246443L501.15621837356684 366.00702687053877L488.8094906075271 366.00702687053877Q488.2267541937907 363.51218659922984 487.9353859869225 361.41797761236467Q487.6440177800543 359.34197913842877 487.6440177800543 357.3024016903514L487.6440177800543 357.3024016903514Q487.6440177800543 352.3673526865214 489.3558059954049 348.59777651016407Q491.04938369782633 344.8099898208775 494.0905393570131 342.2423074978515Q497.13169501619996 339.69283568775484 501.3565340157887 338.3816787568479Q505.5813730153776 337.07052182594106 510.64389560971256 337.07052182594106L510.64389560971256 337.07052182594106Q517.2361012901055 337.07052182594106 521.5884138801991 338.50915234735277Q525.9407264702927 339.9477828687645 528.526619306248 342.8250439115879Q531.1307226551326 345.7023049544114 532.1869324050298 350.05461754450505Q533.243142154927 354.4069301345987 533.243142154927 360.23429427196265L533.243142154927 360.23429427196265L533.243142154927 426.2474036405383L521.2059931086847 426.2474036405383L520.0405202812118 418.6900407748945Q517.4182064193981 422.4778274641811 513.0294728034459 424.84519414498516Q508.6589497004229 427.21256082578924 503.0136906923516 427.21256082578924ZM510.188632786481 414.7201489563153L510.188632786481 414.7201489563153Q512.2282102345583 414.7201489563153 514.1949456309187 413.66393920641815Q516.1434705143497 412.60772945652093 517.491048471115 411.07804637046286L517.491048471115 411.07804637046286L517.491048471115 383.48911928263055Q516.1981020531375 383.9990136446499 514.6137874282916 384.69101313596184Q513.0112622905166 385.4012231402031 511.15378997173184 386.5484854547466L511.15378997173184 386.5484854547466Q509.4237912434519 387.64111623050235 507.74842405395987 389.17079931656036Q506.091267377397 390.71869291554765 504.78011044648997 392.8311124153421Q503.46895351558317 394.94353191513653 502.66769094669564 397.6022668028088Q501.8664283778081 400.2610016904811 501.8664283778081 403.52068350481903L501.8664283778081 403.52068350481903Q501.8664283778081 408.5832060991539 503.85137428709766 411.64257227127Q505.8363201963873 414.7201489563153 510.188632786481 414.7201489563153ZM550.2699717437872 426.2474036405383L550.2699717437872 309.7911734579062L566.4591177379014 309.7911734579062L566.4591177379014 426.2474036405383L550.2699717437872 426.2474036405383ZM580.8636334649477 414.79299100803235L580.8636334649477 414.79299100803235Q580.8636334649477 408.00046968541756 583.5587893784787 405.05036659087705Q586.2539452920093 402.1184740092658 590.8612050631127 402.1184740092658L590.8612050631127 402.1184740092658Q595.6505699635087 402.1184740092658 598.2728838253224 405.2506822330989Q600.9134082000655 408.38289045693205 600.9134082000655 414.79299100803235L600.9134082000655 414.79299100803235Q600.9134082000655 420.6749866841841 598.2546733123932 423.9164579855928Q595.5959384247209 427.1397187740722 590.7883630113957 427.1397187740722L590.7883630113957 427.1397187740722Q586.2539452920093 427.1397187740722 583.5587893784787 424.0075105502391Q580.8636334649477 420.875302326406 580.8636334649477 414.79299100803235Z " fill="#aa0000" transform="matrix(0.6551873399754969,0,0,0.6551873399754969,-10.481752283726536,51.242385049228844)"/><path d="M671.2694565308559 325.462853889857L671.2694565308559 325.462853889857Q666.7913012739764 325.462853889857 664.1881459823755 322.786883065624Q661.6031945739329 320.0927083582331 661.6031945739329 314.9046016581897L661.6031945739329 314.9046016581897Q661.6031945739329 312.0283881192182 662.2767382507807 310.08057262130717Q662.9502819276283 308.1327571233962 664.1881459823755 306.9495047181231Q665.4442139202808 305.76625231285004 667.2281944697695 305.22013581810864Q669.030378902416 304.6740193233672 671.32406818033 304.6740193233672L671.32406818033 304.6740193233672Q676.1298933340545 304.6740193233672 678.6238253267069 307.0951357833875Q681.1177573193593 309.5344561265658 681.1177573193593 314.9046016581897L681.1177573193593 314.9046016581897Q681.1177573193593 319.9106695266526 678.5874175603908 322.6776597666758Q676.0570778014223 325.462853889857 671.2694565308559 325.462853889857ZM662.8774663949962 433.63032761497266L662.8774663949962 338.0781449183836L679.0789224056581 338.0781449183836L679.0789224056581 431.5732888181134Q679.0789224056581 438.81843431501613 677.6226117530143 443.29658957189565Q676.1845049835285 447.7747448287753 673.7633885235084 450.30508458774375Q671.32406818033 452.83542434671233 668.193000277146 453.72741462145666Q665.0619323739618 454.61940489620093 661.6578062234071 454.61940489620093L661.6578062234071 454.61940489620093Q659.7463984918121 454.61940489620093 657.762175227585 454.2917349993561Q655.7779519633579 453.9822689856693 653.8483403486048 453.09027871092496L653.8483403486048 453.09027871092496L653.8483403486048 443.67887111821466Q654.3762529601881 443.73348276768877 654.8859616886135 443.7698905340049Q655.3956704170389 443.806298300321 655.9053791454642 443.806298300321L655.9053791454642 443.806298300321Q657.3070781486338 443.806298300321 658.5995538528551 443.29658957189565Q659.8738256739184 442.7868808434704 660.8386314812949 441.60362843819735Q661.7852334055133 440.4021721497662 662.3313499002547 438.45435665185516Q662.8774663949962 436.5065411539441 662.8774663949962 433.63032761497266L662.8774663949962 433.63032761497266ZM695.9721259763257 426.2031432864895L695.9721259763257 338.0781449183836L708.441785939588 338.0781449183836L709.9163004753898 347.4895525110939L709.9163004753898 347.5441641605681Q711.8459120901427 344.5405234394903 714.0485819522664 342.5198924089471Q716.2512518143901 340.5174652615619 718.6177566249363 339.2978050899727Q720.9842614354825 338.0781449183836 723.4599895449769 337.5684361899583Q725.9175137713132 337.05872746153295 728.3568341144914 337.05872746153295L728.3568341144914 337.05872746153295Q736.0934844566616 337.05872746153295 740.2803775830123 342.46528075947293Q744.4854745925212 347.8718340574129 744.4854745925212 358.68494065329287L744.4854745925212 358.68494065329287L744.4854745925212 426.2031432864895L728.2840185818593 426.2031432864895L728.2840185818593 359.2674649143504Q728.2840185818593 353.44222230377534 726.5000380323706 351.16673690901945Q724.6978535997241 348.89125151426356 721.2391157996951 348.89125151426356L721.2391157996951 348.89125151426356Q718.8179993396748 348.89125151426356 716.4150867628126 350.4931932321717Q714.0121741859505 352.09513495007985 712.1553781038297 354.91673683957714L712.1553781038297 354.91673683957714L712.1553781038297 426.2031432864895L695.9721259763257 426.2031432864895ZM773.411444930658 427.16794909386596L773.411444930658 427.16794909386596Q769.3155712200974 427.16794909386596 766.1480955505972 425.5295996096417Q762.980619881097 423.8912501254175 760.7961539021314 421.0878521190782Q758.6116879231658 418.2662502295809 757.5012510505248 414.3888231169169Q756.372610294726 410.52959988741094 756.372610294726 405.97862909789916L756.372610294726 405.97862909789916Q756.372610294726 400.5356680336431 757.7196976484215 396.31236714097616Q759.0667850021168 392.0890662483093 761.6517364105596 388.7031439809125Q764.2548917021604 385.3172217135158 768.0959110485082 382.53202759033456Q771.9369303948563 379.74683346715335 776.9794060296351 377.2529014745009L776.9794060296351 377.2529014745009Q779.4187263728136 376.03324130291173 782.4587748602073 374.7771733650065Q785.4988233476013 373.5393093102593 787.8653281581473 372.6291151523569L787.8653281581473 372.6291151523569L787.8653281581473 360.99683381436483Q787.8653281581473 358.43008628908024 787.6832893265669 356.22741642695655Q787.4830466118285 354.0065426816748 786.7548912855066 352.3863970806086Q786.0085320760265 350.74804759638437 784.5340175402248 349.81964955532396Q783.059503004423 348.89125151426356 780.5109593622963 348.89125151426356L780.5109593622963 348.89125151426356Q778.7815904622819 348.89125151426356 777.1432409780577 349.5283874247952Q775.5230953769915 350.16552333532684 774.2670274390862 351.71285340376085Q773.0109595011809 353.2419795890368 772.2828041748592 355.8087271143214Q771.5546488485372 358.35727075644803 771.5546488485372 362.1436784533218L771.5546488485372 362.1436784533218L771.5546488485372 365.98469779966973L759.1942121842233 365.98469779966973Q758.6116879231658 363.4907658070173 758.3386296757951 361.3973192438419Q758.0473675452663 359.3220765638245 758.0473675452663 357.2832416501233L758.0473675452663 357.2832416501233Q758.0473675452663 352.3499893142925 759.7403286789647 348.58178550057676Q761.4332898126631 344.795377803703 764.4733383000569 342.22863027841834Q767.5133867874508 339.6800866362917 771.7366876801177 338.36940704891236Q775.9599885727846 337.05872746153295 781.0206680907218 337.05872746153295L781.0206680907218 337.05872746153295Q787.6104737939347 337.05872746153295 791.961201868708 338.4968342310187Q796.3119299434813 339.9349410005044 798.915085235082 342.8111545394758Q801.5000366435247 345.68736807844726 802.5558618666914 350.0380961532205Q803.6116870898582 354.3888242279938 803.6116870898582 360.21406683856884L803.6116870898582 360.21406683856884L803.6116870898582 426.2031432864895L791.578920322389 426.2031432864895L790.432075683432 418.6485317758999Q787.8107165086733 422.43493947277375 783.423580667584 424.8014442833198Q779.0364448264945 427.16794909386596 773.411444930658 427.16794909386596ZM780.5655710117705 414.6800852474457L780.5655710117705 414.6800852474457Q782.6226098086299 414.6800852474457 784.570425306541 413.62426002427895Q786.5182408044518 412.5684348011122 787.8653281581473 411.03930861583626L787.8653281581473 411.03930861583626L787.8653281581473 383.4604256313949Q786.5910563370842 383.97013435982024 784.989114619176 384.66188191982604Q783.3871729012678 385.3718333629899 781.530376819147 386.51867800194685L781.530376819147 386.51867800194685Q779.8010079191326 387.6109109914297 778.1444545517502 389.1400371767056Q776.4696973012099 390.6873672451396 775.1590177138305 392.79901769147307Q773.8483381264512 394.91066813780657 773.0473672674971 397.5684350788814Q772.246396408543 400.2262020199563 772.246396408543 403.4846971052467L772.246396408543 403.4846971052467Q772.246396408543 408.5453766231838 774.2306196727702 411.6036289937357Q776.2148429369972 414.6800852474457 780.5655710117705 414.6800852474457ZM836.0510068774979 420.3779006759144L836.5789194890813 431.1910072717944L836.5789194890813 454.67401654567504L820.3774634784195 454.67401654567504L820.3774634784195 338.0781449183836L833.0473661564201 338.0781449183836L834.5218806922221 347.3621253289876Q835.6141136817048 345.55994089634095 837.1068321006646 343.70314481422014Q838.6177544027826 341.84634873209933 840.6383854333258 340.4082419626136Q842.6408125807111 338.9701351931279 845.1711523396796 338.0417371520675Q847.701492098648 337.1133391110071 850.8325600018322 337.1133391110071L850.8325600018322 337.1133391110071Q852.1796473555278 337.1133391110071 854.0728512039645 337.36819347521975Q855.9660550524015 337.62304783943245 857.9684821997866 338.6606691794411Q859.9891132303298 339.6800866362917 862.009744260873 341.700717666835Q864.0303752914162 343.70314481422014 865.5959092430085 347.23469814688127Q867.1614431946005 350.74804759638437 868.144452885135 355.9907659459019Q869.1456664588277 361.2516881785775 869.1456664588277 368.73348415653487L869.1456664588277 368.73348415653487L869.1456664588277 395.4203768662319Q869.1456664588277 402.9021728441892 868.144452885135 408.1630950768648Q867.1614431946005 413.4058134263824 865.5595014766923 416.9191628758855Q863.9575597587841 420.4507162085466 861.9187248450828 422.48955112224786Q859.8616860482236 424.5465899191072 857.7500356018902 425.56600737595784Q855.6383851555568 426.5854248328084 853.6541618913295 426.8766869633372Q851.6699386271025 427.16794909386596 850.1954240913005 427.16794909386596L850.1954240913005 427.16794909386596Q845.0801329238893 427.16794909386596 841.6578028901765 425.18372582963883Q838.2354728564637 423.1995025654117 836.0510068774979 420.3779006759144L836.0510068774979 420.3779006759144ZM836.5789194890813 354.97134848905125L836.5789194890813 408.217706726339Q837.0886282175068 409.49197854740225 837.8167835438285 410.65702706951726Q838.5449388701504 411.8038717084742 839.5461524438431 412.69586198321855Q840.5291621343777 413.5878522579628 841.7852300722827 414.1339687527043Q843.041298010188 414.6800852474457 844.6978513775703 414.6800852474457L844.6978513775703 414.6800852474457Q846.4818319270589 414.6800852474457 847.9563464628609 414.00654157059796Q849.4308609986626 413.3329978937502 850.5230939881453 411.58542511057766Q851.6153269776282 409.8196484442471 852.2160551218437 406.688580541063Q852.8167832660592 403.5393087547209 852.8167832660592 398.6242603020481L852.8167832660592 398.6242603020481L852.8167832660592 364.89246481018694Q852.8167832660592 359.95921247435615 852.2160551218437 356.86455233748813Q851.6153269776282 353.75168831746214 850.5595017544615 351.9677077679735Q849.5036765312948 350.16552333532684 848.029161995493 349.5283874247952Q846.5546474596911 348.89125151426356 844.7706669102026 348.89125151426356L844.7706669102026 348.89125151426356Q841.6942106564925 348.89125151426356 839.7463951585817 350.71163983006824Q837.7803757775125 352.550232029031 836.5789194890813 354.97134848905125L836.5789194890813 354.97134848905125ZM905.9357143212408 427.16794909386596L905.9357143212408 427.16794909386596Q903.1323163149016 427.16794909386596 900.219695009614 426.7128520149148Q897.3070737043265 426.2759588191217 894.5764912306195 424.856055932794Q891.8641126400703 423.45435692962434 889.461200063208 420.8329977548656Q887.058287486346 418.2116385801068 885.2743069368573 413.9155221548077Q883.4721225042106 409.61940572950857 882.45270504736 403.3572699231404Q881.4332875905093 397.0769302336141 881.4332875905093 388.37547408406766L881.4332875905093 388.37547408406766L881.4332875905093 374.55872676710993Q881.4332875905093 365.98469779966973 882.489112813676 359.8681930585659Q883.5449380368427 353.75168831746214 885.3653263526476 349.6012029574274Q887.1857146684522 345.43251371423463 889.6250350116306 342.97498948789826Q892.0643553548089 340.5174652615619 894.7767339453578 339.2067856741825Q897.4891125359068 337.8779022036451 900.3835299580364 337.47741677416803Q903.2597434970078 337.05872746153295 906.0085298538729 337.05872746153295L906.0085298538729 337.05872746153295Q908.6298890286316 337.05872746153295 911.4514909181289 337.44100900785196Q914.2548889244683 337.82329055417097 916.9490636318592 339.0611546089181Q919.64323833925 340.31722254682336 922.0461509161123 342.77474677315973Q924.4308596098165 345.25047488265415 926.2694518087794 349.4009602426889Q928.089840124584 353.56964948588165 929.1456653477508 359.7407658764596Q930.2014905709175 365.9118822670376 930.2014905709175 374.55872676710993L930.2014905709175 374.55872676710993L930.2014905709175 388.37547408406766Q930.2014905709175 396.9495030515078 929.1092575814346 403.15702720840187Q928.0170245919519 409.36455136529594 926.1602285098311 413.660667790595Q924.3034324277103 417.9385803327361 921.8823159676899 420.596347273811Q919.4429956245117 423.2541142148858 916.7670248002787 424.7286287506877Q914.0728500928878 426.2031432864895 911.2876559697065 426.67644424859867Q908.5024618465254 427.16794909386596 905.9357143212408 427.16794909386596ZM906.063141503347 414.6800852474457L906.063141503347 414.6800852474457Q908.2476074823128 414.6800852474457 909.7585297844307 413.5696483748048Q911.2512482033906 412.44100761900586 912.1796462444509 409.8924639768793Q913.1080442855111 407.32571645159464 913.5267335981464 403.13882332524383Q913.9454229107814 398.93372631573493 913.9454229107814 392.7262021588409L913.9454229107814 392.7262021588409L913.9454229107814 371.04537731760684Q913.9454229107814 364.83785316071277 913.5267335981464 360.59634838488785Q913.1080442855111 356.3730474922209 912.1796462444509 353.7880960837782Q911.2512482033906 351.2031446753355 909.7585297844307 350.0380961532205Q908.2476074823128 348.89125151426356 906.063141503347 348.89125151426356L906.063141503347 348.89125151426356Q903.769452225433 348.89125151426356 902.203918273841 350.0380961532205Q900.6383843222491 351.2031446753355 899.6007629822402 353.7880960837782Q898.5813455253897 356.3730474922209 898.1444523295966 360.59634838488785Q897.6893552506453 364.83785316071277 897.6893552506453 371.04537731760684L897.6893552506453 371.04537731760684L897.6893552506453 392.7262021588409Q897.6893552506453 398.93372631573493 898.1444523295966 403.13882332524383Q898.5813455253897 407.32571645159464 899.6007629822402 409.8924639768793Q900.6383843222491 412.44100761900586 902.203918273841 413.5696483748048Q903.769452225433 414.6800852474457 906.063141503347 414.6800852474457ZM944.7828009805132 426.2031432864895L944.7828009805132 309.78931049077846L960.984256991175 309.78931049077846L960.984256991175 426.2031432864895L944.7828009805132 426.2031432864895ZM986.5243050619151 325.462853889857L986.5243050619151 325.462853889857Q982.0461498050356 325.462853889857 979.4429945134348 322.786883065624Q976.858043104992 320.0927083582331 976.858043104992 314.9046016581897L976.858043104992 314.9046016581897Q976.858043104992 312.0283881192182 977.5315867818399 310.08057262130717Q978.2051304586876 308.1327571233962 979.4429945134348 306.9495047181231Q980.6990624513401 305.76625231285004 982.4830430008287 305.22013581810864Q984.2852274334753 304.6740193233672 986.5789167113892 304.6740193233672L986.5789167113892 304.6740193233672Q991.3847418651137 304.6740193233672 993.8786738577662 307.0951357833875Q996.3726058504185 309.5344561265658 996.3726058504185 314.9046016581897L996.3726058504185 314.9046016581897Q996.3726058504185 319.9106695266526 993.84226609145 322.6776597666758Q991.3119263324816 325.462853889857 986.5243050619151 325.462853889857ZM978.1323149260554 426.2031432864895L978.1323149260554 338.0781449183836L994.3337709367172 338.0781449183836L994.3337709367172 426.2031432864895L978.1323149260554 426.2031432864895ZM1013.0837705895058 404.2492601978847L1013.0837705895058 349.6012029574274L1006.2209066389221 349.6012029574274L1006.2209066389221 338.0781449183836L1014.4854695926754 338.0781449183836L1017.7439646779658 315.2322715550345L1029.2670227170097 315.2322715550345L1029.2670227170097 338.0781449183836L1043.33862439818 338.0781449183836L1043.33862439818 349.6012029574274L1029.2670227170097 349.6012029574274L1029.2670227170097 405.6509592010543Q1029.2670227170097 408.5453766231838 1029.8131392117511 410.29294940635634Q1030.3592557064924 412.0587260726869 1031.3240615138689 413.05993964637946Q1032.2706634380875 414.04294933691403 1033.5631391423087 414.3706192337589Q1034.8374109633721 414.6800852474457 1036.2391099665417 414.6800852474457L1036.2391099665417 414.6800852474457Q1038.6056147770878 414.6800852474457 1040.4442069760505 414.1157648695462Q1042.2645952918554 413.5332406084887 1043.9211486592376 412.51382315163806L1043.9211486592376 412.51382315163806L1043.9211486592376 421.4701336653972Q1042.519449656068 423.1995025654117 1040.8811001718436 424.29173555489456Q1039.2427506876195 425.3657646612193 1037.531585670763 426.03930833806703Q1035.8022167707486 426.7128520149148 1034.0000323381018 426.96770637912743Q1032.2160517886132 427.22256074334007 1030.4866828885988 427.22256074334007L1030.4866828885988 427.22256074334007Q1027.100760621202 427.22256074334007 1023.9514888348599 426.33057046859574Q1020.8204209316759 425.4385801938515 1018.3811005884975 422.90824043488294Q1015.9599841284771 420.3779006759144 1014.5218773589916 415.89974541903484Q1013.0837705895058 411.4215901621552 1013.0837705895058 404.2492601978847L1013.0837705895058 404.2492601978847ZM1066.5849831910061 427.16794909386596L1066.5849831910061 427.16794909386596Q1062.4891094804454 427.16794909386596 1059.3216338109453 425.5295996096417Q1056.1541581414451 423.8912501254175 1053.9696921624795 421.0878521190782Q1051.8034300666718 418.2662502295809 1050.674789310873 414.3888231169169Q1049.5643524382322 410.52959988741094 1049.5643524382322 405.97862909789916L1049.5643524382322 405.97862909789916Q1049.5643524382322 400.5356680336431 1050.8932359087696 396.31236714097616Q1052.240323262465 392.0890662483093 1054.8434785540658 388.7031439809125Q1057.4284299625085 385.3172217135158 1061.2694493088563 382.53202759033456Q1065.1104686552044 379.74683346715335 1070.1711481731413 377.2529014745009L1070.1711481731413 377.2529014745009Q1072.5922646331617 376.03324130291173 1075.6323131205554 374.7771733650065Q1078.6723616079494 373.5393093102593 1081.0388664184954 372.6291151523569L1081.0388664184954 372.6291151523569L1081.0388664184954 360.99683381436483Q1081.0388664184954 358.43008628908024 1080.856827586915 356.22741642695655Q1080.6565848721766 354.0065426816748 1079.9284295458547 352.3863970806086Q1079.1820703363746 350.74804759638437 1077.707555800573 349.81964955532396Q1076.251245147929 348.89125151426356 1073.6844976226446 348.89125151426356L1073.6844976226446 348.89125151426356Q1071.95512872263 348.89125151426356 1070.3167792384058 349.5283874247952Q1068.6966336373396 350.16552333532684 1067.4405656994343 351.71285340376085Q1066.202701644687 353.2419795890368 1065.4563424352073 355.8087271143214Q1064.7281871088853 358.35727075644803 1064.7281871088853 362.1436784533218L1064.7281871088853 362.1436784533218L1064.7281871088853 365.98469779966973L1052.3677504445714 365.98469779966973Q1051.8034300666718 363.4907658070173 1051.5121679361432 361.3973192438419Q1051.2209058056144 359.3220765638245 1051.2209058056144 357.2832416501233L1051.2209058056144 357.2832416501233Q1051.2209058056144 352.3499893142925 1052.9138669393128 348.58178550057676Q1054.6068280730112 344.795377803703 1057.646876560405 342.22863027841834Q1060.686925047799 339.6800866362917 1064.9102259404658 338.36940704891236Q1069.1335268331327 337.05872746153295 1074.1942063510699 337.05872746153295L1074.1942063510699 337.05872746153295Q1080.7840120542828 337.05872746153295 1085.1347401290561 338.4968342310187Q1089.4854682038294 339.9349410005044 1092.08862349543 342.8111545394758Q1094.6735749038728 345.68736807844726 1095.7294001270395 350.0380961532205Q1096.7852253502062 354.3888242279938 1096.7852253502062 360.21406683856884L1096.7852253502062 360.21406683856884L1096.7852253502062 426.2031432864895L1084.752458582737 426.2031432864895L1083.60561394378 418.6485317758999Q1080.9842547690214 422.43493947277375 1076.597118927932 424.8014442833198Q1072.2099830868426 427.16794909386596 1066.5849831910061 427.16794909386596ZM1073.7391092721186 414.6800852474457L1073.7391092721186 414.6800852474457Q1075.796148068978 414.6800852474457 1077.743963566889 413.62426002427895Q1079.6917790648001 412.5684348011122 1081.0388664184954 411.03930861583626L1081.0388664184954 411.03930861583626L1081.0388664184954 383.4604256313949Q1079.7645945974323 383.97013435982024 1078.162652879524 384.66188191982604Q1076.560711161616 385.3718333629899 1074.7039150794951 386.51867800194685L1074.7039150794951 386.51867800194685Q1072.9745461794807 387.6109109914297 1071.3179928120983 389.1400371767056Q1069.643235561558 390.6873672451396 1068.3325559741786 392.79901769147307Q1067.0218763867992 394.91066813780657 1066.2209055278452 397.5684350788814Q1065.419934668891 400.2262020199563 1065.419934668891 403.4846971052467L1065.419934668891 403.4846971052467Q1065.419934668891 408.5453766231838 1067.4041579331183 411.6036289937357Q1069.3883811973456 414.6800852474457 1073.7391092721186 414.6800852474457ZM1113.5510017387676 426.2031432864895L1113.5510017387676 338.0781449183836L1126.038865585188 338.0781449183836L1127.5133801209897 347.4895525110939L1127.5133801209897 347.5441641605681Q1129.4247878525846 344.5405234394903 1131.6274577147083 342.5198924089471Q1133.84833145999 340.5174652615619 1136.2148362705364 339.2978050899727Q1138.5813410810822 338.0781449183836 1141.0388653074187 337.5684361899583Q1143.496389533755 337.05872746153295 1145.9357098769333 337.05872746153295L1145.9357098769333 337.05872746153295Q1153.6723602191032 337.05872746153295 1157.8774572286122 342.46528075947293Q1162.0643503549632 347.8718340574129 1162.0643503549632 358.68494065329287L1162.0643503549632 358.68494065329287L1162.0643503549632 426.2031432864895L1145.8810982274592 426.2031432864895L1145.8810982274592 359.2674649143504Q1145.8810982274592 353.44222230377534 1144.0789137948125 351.16673690901945Q1142.2949332453238 348.89125151426356 1138.836195445295 348.89125151426356L1138.836195445295 348.89125151426356Q1136.3968751021166 348.89125151426356 1133.9939625252543 350.4931932321717Q1131.6092538315502 352.09513495007985 1129.7524577494296 354.91673683957714L1129.7524577494296 354.91673683957714L1129.7524577494296 426.2031432864895L1113.5510017387676 426.2031432864895ZM1201.0388641963418 427.16794909386596L1201.0388641963418 427.16794909386596Q1198.2172623068445 427.16794909386596 1195.304641001557 426.7128520149148Q1192.3920196962695 426.2759588191217 1189.6796411057205 424.856055932794Q1186.9672625151713 423.45435692962434 1184.5643499383093 420.8329977548656Q1182.161437361447 418.2116385801068 1180.3592529288003 413.9155221548077Q1178.5752723793116 409.61940572950857 1177.555854922461 403.3572699231404Q1176.5364374656103 397.0769302336141 1176.5364374656103 388.37547408406766L1176.5364374656103 388.37547408406766L1176.5364374656103 374.55872676710993Q1176.5364374656103 365.98469779966973 1177.592262688777 359.8681930585659Q1178.648087911944 353.75168831746214 1180.4684762277486 349.6012029574274Q1182.2888645435532 345.43251371423463 1184.7281848867317 342.97498948789826Q1187.1493013467518 340.5174652615619 1189.8798838204589 339.2067856741825Q1192.592262411008 337.8779022036451 1195.4684759499794 337.47741677416803Q1198.344689488951 337.05872746153295 1201.111679728974 337.05872746153295L1201.111679728974 337.05872746153295Q1203.7330389037327 337.05872746153295 1206.536436910072 337.44100900785196Q1209.3580387995694 337.82329055417097 1212.0522135069602 339.0611546089181Q1214.7281843311932 340.31722254682336 1217.1310969080555 342.77474677315973Q1219.5340094849175 345.25047488265415 1221.3543978007224 349.4009602426889Q1223.174786116527 353.56964948588165 1224.2306113396937 359.7407658764596Q1225.2864365628604 365.9118822670376 1225.2864365628604 374.55872676710993L1225.2864365628604 374.55872676710993L1225.2864365628604 388.37547408406766Q1225.2864365628604 396.9495030515078 1224.2124074565356 403.15702720840187Q1223.120174467053 409.36455136529594 1221.2633783849321 413.660667790595Q1219.4065823028113 417.9385803327361 1216.9672619596329 420.596347273811Q1214.5461454996127 423.2541142148858 1211.8519707922217 424.7286287506877Q1209.1577960848308 426.2031432864895 1206.3908058448076 426.67644424859867Q1203.6056117216265 427.16794909386596 1201.0388641963418 427.16794909386596ZM1201.1662913784482 414.6800852474457L1201.1662913784482 414.6800852474457Q1203.3507573574138 414.6800852474457 1204.8434757763737 413.5696483748048Q1206.3543980784916 412.44100761900586 1207.282796119552 409.8924639768793Q1208.2111941606124 407.32571645159464 1208.6298834732474 403.13882332524383Q1209.0303689027246 398.93372631573493 1209.0303689027246 392.7262021588409L1209.0303689027246 392.7262021588409L1209.0303689027246 371.04537731760684Q1209.0303689027246 364.83785316071277 1208.6298834732474 360.59634838488785Q1208.2111941606124 356.3730474922209 1207.282796119552 353.7880960837782Q1206.3543980784916 351.2031446753355 1204.8434757763737 350.0380961532205Q1203.3507573574138 348.89125151426356 1201.1662913784482 348.89125151426356L1201.1662913784482 348.89125151426356Q1198.8543982173762 348.89125151426356 1197.288864265784 350.0380961532205Q1195.723330314192 351.2031446753355 1194.7039128573415 353.7880960837782Q1193.6844954004907 356.3730474922209 1193.2293983215395 360.59634838488785Q1192.7743012425883 364.83785316071277 1192.7743012425883 371.04537731760684L1192.7743012425883 371.04537731760684L1192.7743012425883 392.7262021588409Q1192.7743012425883 398.93372631573493 1193.2293983215395 403.13882332524383Q1193.6844954004907 407.32571645159464 1194.7039128573415 409.8924639768793Q1195.723330314192 412.44100761900586 1197.288864265784 413.5696483748048Q1198.8543982173762 414.6800852474457 1201.1662913784482 414.6800852474457ZM1237.1371644987491 414.7529007800779L1237.1371644987491 414.7529007800779Q1237.1371644987491 407.9628523621263 1239.8131353229821 405.0138232905227Q1242.507310030373 402.0829981020771 1247.112892469359 402.0829981020771L1247.112892469359 402.0829981020771Q1251.9187176230835 402.0829981020771 1254.5400767978422 405.2140660052612Q1257.1614359726009 408.3451339084453 1257.1614359726009 414.7529007800779L1257.1614359726009 414.7529007800779Q1257.1614359726009 420.63275504012705 1254.503669031526 423.8730462422594Q1251.845902090451 427.09513356123375 1247.0582808198849 427.09513356123375L1247.0582808198849 427.09513356123375Q1242.507310030373 427.09513356123375 1239.8131353229821 423.96406565804966Q1237.1371644987491 420.8329977548656 1237.1371644987491 414.7529007800779ZM1280.334979232795 325.462853889857L1280.334979232795 325.462853889857Q1275.8568239759152 325.462853889857 1273.2536686843146 322.786883065624Q1270.6687172758718 320.0927083582331 1270.6687172758718 314.9046016581897L1270.6687172758718 314.9046016581897Q1270.6687172758718 312.0283881192182 1271.3422609527197 310.08057262130717Q1272.0158046295674 308.1327571233962 1273.2536686843146 306.9495047181231Q1274.5097366222199 305.76625231285004 1276.2937171717085 305.22013581810864Q1278.0959016043553 304.6740193233672 1280.389590882269 304.6740193233672L1280.389590882269 304.6740193233672Q1285.1954160359935 304.6740193233672 1287.6893480286458 307.0951357833875Q1290.1832800212983 309.5344561265658 1290.1832800212983 314.9046016581897L1290.1832800212983 314.9046016581897Q1290.1832800212983 319.9106695266526 1287.6529402623298 322.6776597666758Q1285.1408043865194 325.462853889857 1280.334979232795 325.462853889857ZM1271.9429890969354 426.2031432864895L1271.9429890969354 338.0781449183836L1288.1444451075972 338.0781449183836L1288.1444451075972 426.2031432864895L1271.9429890969354 426.2031432864895ZM1327.2463861310823 427.16794909386596L1327.2463861310823 427.16794909386596Q1324.4247842415848 427.16794909386596 1321.5121629362973 426.7128520149148Q1318.5995416310097 426.2759588191217 1315.887163040461 424.856055932794Q1313.1565805667537 423.45435692962434 1310.7718718730496 420.8329977548656Q1308.3689592961873 418.2116385801068 1306.5667748635408 413.9155221548077Q1304.782794314052 409.61940572950857 1303.7633768572014 403.3572699231404Q1302.7257555171927 397.0769302336141 1302.7257555171927 388.37547408406766L1302.7257555171927 388.37547408406766L1302.7257555171927 374.55872676710993Q1302.7257555171927 365.98469779966973 1303.7815807403595 359.8681930585659Q1304.8374059635262 353.75168831746214 1306.6759981624891 349.6012029574274Q1308.4963864782937 345.43251371423463 1310.917502938314 342.97498948789826Q1313.3568232814923 340.5174652615619 1316.0692018720413 339.2067856741825Q1318.7997843457483 337.8779022036451 1321.67599788472 337.47741677416803Q1324.5522114236912 337.05872746153295 1327.3009977805564 337.05872746153295L1327.3009977805564 337.05872746153295Q1329.922356955315 337.05872746153295 1332.7439588448124 337.44100900785196Q1335.5655607343097 337.82329055417097 1338.2415315585426 339.0611546089181Q1340.9357062659335 340.31722254682336 1343.3386188427958 342.77474677315973Q1345.741531419658 345.25047488265415 1347.5619197354627 349.4009602426889Q1349.3823080512675 353.56964948588165 1350.4381332744342 359.7407658764596Q1351.493958497601 365.9118822670376 1351.493958497601 374.55872676710993L1351.493958497601 374.55872676710993L1351.493958497601 388.37547408406766Q1351.493958497601 396.9495030515078 1350.401725508118 403.15702720840187Q1349.3276964017932 409.36455136529594 1347.4709003196726 413.660667790595Q1345.6141042375516 417.9385803327361 1343.1747838943734 420.596347273811Q1340.753667434353 423.2541142148858 1338.0594927269622 424.7286287506877Q1335.365318019571 426.2031432864895 1332.58012389639 426.67644424859867Q1329.7949297732089 427.16794909386596 1327.2463861310823 427.16794909386596ZM1327.3738133131885 414.6800852474457L1327.3738133131885 414.6800852474457Q1329.540075408996 414.6800852474457 1331.0509977111142 413.5696483748048Q1332.5619200132319 412.44100761900586 1333.4903180542924 409.8924639768793Q1334.418716095353 407.32571645159464 1334.8192015248296 403.13882332524383Q1335.2378908374649 398.93372631573493 1335.2378908374649 392.7262021588409L1335.2378908374649 392.7262021588409L1335.2378908374649 371.04537731760684Q1335.2378908374649 364.83785316071277 1334.8192015248296 360.59634838488785Q1334.418716095353 356.3730474922209 1333.4903180542924 353.7880960837782Q1332.5619200132319 351.2031446753355 1331.0509977111142 350.0380961532205Q1329.540075408996 348.89125151426356 1327.3738133131885 348.89125151426356L1327.3738133131885 348.89125151426356Q1325.0619201521167 348.89125151426356 1323.4963862005245 350.0380961532205Q1321.9308522489325 351.2031446753355 1320.9114347920818 353.7880960837782Q1319.8920173352312 356.3730474922209 1319.43692025628 360.59634838488785Q1318.9818231773288 364.83785316071277 1318.9818231773288 371.04537731760684L1318.9818231773288 371.04537731760684L1318.9818231773288 392.7262021588409Q1318.9818231773288 398.93372631573493 1319.43692025628 403.13882332524383Q1319.8920173352312 407.32571645159464 1320.9114347920818 409.8924639768793Q1321.9308522489325 412.44100761900586 1323.4963862005245 413.5696483748048Q1325.0619201521167 414.6800852474457 1327.3738133131885 414.6800852474457Z " fill="#aa0000" transform="matrix(0.6551873399754969,0,0,0.6551873399754969,-10.481752283726536,51.242385049228844)"/></g></svg>